<mxfile host="app.diagrams.net" modified="2024-03-02T21:11:41.450Z" agent="Mozilla/5.0 (Windows NT 10.0; Win64; x64) AppleWebKit/537.36 (KHTML, like Gecko) Chrome/121.0.0.0 Safari/537.36" etag="dQED2HzULIUGFM4UV0T9" version="23.1.5" type="device">
  <diagram id="C5RBs43oDa-KdzZeNtuy" name="Page-1">
    <mxGraphModel dx="1500" dy="757" grid="1" gridSize="10" guides="1" tooltips="1" connect="1" arrows="1" fold="1" page="1" pageScale="1" pageWidth="827" pageHeight="1169" math="0" shadow="0">
      <root>
        <mxCell id="WIyWlLk6GJQsqaUBKTNV-0" />
        <mxCell id="WIyWlLk6GJQsqaUBKTNV-1" parent="WIyWlLk6GJQsqaUBKTNV-0" />
        <mxCell id="0OGq3kWGWBpuJd9hsDQ8-0" value="&lt;div style=&quot;background-color:#1e1f22;color:#bcbec4&quot;&gt;&lt;pre style=&quot;font-family:&#39;JetBrains Mono&#39;,monospace;font-size:9,8pt;&quot;&gt;&lt;font style=&quot;font-size: 10px;&quot;&gt;&lt;span style=&quot;color:#cf8e6d;&quot;&gt;int &lt;/span&gt;leftEnd = &lt;span style=&quot;color:#2aacb8;&quot;&gt;0&lt;/span&gt;;&lt;br&gt;&lt;span style=&quot;color:#cf8e6d;&quot;&gt;int &lt;/span&gt;rightEnd = arr.&lt;span style=&quot;color:#c77dbb;&quot;&gt;length &lt;/span&gt;- &lt;span style=&quot;color:#2aacb8;&quot;&gt;1&lt;/span&gt;;&lt;/font&gt;&lt;/pre&gt;&lt;/div&gt;" style="rounded=1;whiteSpace=wrap;html=1;fillColor=#FFFFFF;shadow=1;" vertex="1" parent="WIyWlLk6GJQsqaUBKTNV-1">
          <mxGeometry x="131" y="150" width="170" height="60" as="geometry" />
        </mxCell>
        <mxCell id="0OGq3kWGWBpuJd9hsDQ8-1" style="edgeStyle=none;rounded=0;orthogonalLoop=1;jettySize=auto;html=1;exitX=0.5;exitY=1;exitDx=0;exitDy=0;exitPerimeter=0;entryX=0.5;entryY=0;entryDx=0;entryDy=0;fillColor=#FFFFFF;" edge="1" parent="WIyWlLk6GJQsqaUBKTNV-1" source="0OGq3kWGWBpuJd9hsDQ8-3" target="0OGq3kWGWBpuJd9hsDQ8-10">
          <mxGeometry relative="1" as="geometry" />
        </mxCell>
        <mxCell id="0OGq3kWGWBpuJd9hsDQ8-2" value="False" style="edgeLabel;html=1;align=center;verticalAlign=middle;resizable=0;points=[];fillColor=#FFFFFF;" vertex="1" connectable="0" parent="0OGq3kWGWBpuJd9hsDQ8-1">
          <mxGeometry x="0.0973" y="-2" relative="1" as="geometry">
            <mxPoint as="offset" />
          </mxGeometry>
        </mxCell>
        <mxCell id="0OGq3kWGWBpuJd9hsDQ8-3" value="&lt;div style=&quot;background-color:#1e1f22;color:#bcbec4&quot;&gt;&lt;pre style=&quot;font-family:&#39;JetBrains Mono&#39;,monospace;font-size:9,8pt;&quot;&gt;&lt;font style=&quot;font-size: 10px;&quot;&gt;i &amp;lt; rightEnd&lt;/font&gt;&lt;/pre&gt;&lt;/div&gt;" style="strokeWidth=2;html=1;shape=mxgraph.flowchart.decision;whiteSpace=wrap;fillColor=#FFFFFF;shadow=1;" vertex="1" parent="WIyWlLk6GJQsqaUBKTNV-1">
          <mxGeometry x="136" y="350" width="160" height="150" as="geometry" />
        </mxCell>
        <mxCell id="0OGq3kWGWBpuJd9hsDQ8-4" style="edgeStyle=none;rounded=0;orthogonalLoop=1;jettySize=auto;html=1;exitX=0.5;exitY=1;exitDx=0;exitDy=0;exitPerimeter=0;entryX=0.5;entryY=0;entryDx=0;entryDy=0;fillColor=#FFFFFF;" edge="1" parent="WIyWlLk6GJQsqaUBKTNV-1" source="0OGq3kWGWBpuJd9hsDQ8-5" target="0OGq3kWGWBpuJd9hsDQ8-0">
          <mxGeometry relative="1" as="geometry" />
        </mxCell>
        <mxCell id="0OGq3kWGWBpuJd9hsDQ8-5" value="&lt;font style=&quot;font-size: 10px;&quot;&gt;start&lt;/font&gt;" style="strokeWidth=2;html=1;shape=mxgraph.flowchart.start_1;whiteSpace=wrap;fillColor=#FFFFFF;shadow=1;" vertex="1" parent="WIyWlLk6GJQsqaUBKTNV-1">
          <mxGeometry x="166" y="60" width="100" height="60" as="geometry" />
        </mxCell>
        <mxCell id="0OGq3kWGWBpuJd9hsDQ8-6" style="edgeStyle=none;rounded=0;orthogonalLoop=1;jettySize=auto;html=1;exitX=0.5;exitY=1;exitDx=0;exitDy=0;entryX=0.5;entryY=0;entryDx=0;entryDy=0;fillColor=#FFFFFF;" edge="1" parent="WIyWlLk6GJQsqaUBKTNV-1" source="0OGq3kWGWBpuJd9hsDQ8-0" target="0OGq3kWGWBpuJd9hsDQ8-7">
          <mxGeometry relative="1" as="geometry">
            <mxPoint x="249" y="230" as="targetPoint" />
          </mxGeometry>
        </mxCell>
        <mxCell id="0OGq3kWGWBpuJd9hsDQ8-7" value="&lt;div style=&quot;background-color:#1e1f22;color:#bcbec4&quot;&gt;&lt;pre style=&quot;font-family:&#39;JetBrains Mono&#39;,monospace;font-size:9,8pt;&quot;&gt;&lt;div&gt;&lt;pre style=&quot;font-family:&#39;JetBrains Mono&#39;,monospace;font-size:9,8pt;&quot;&gt;&lt;font style=&quot;font-size: 10px;&quot;&gt;int i = leftEnd&lt;/font&gt;&lt;/pre&gt;&lt;/div&gt;&lt;/pre&gt;&lt;/div&gt;" style="rounded=1;whiteSpace=wrap;html=1;fillColor=#FFFFFF;shadow=1;" vertex="1" parent="WIyWlLk6GJQsqaUBKTNV-1">
          <mxGeometry x="131" y="240" width="170" height="60" as="geometry" />
        </mxCell>
        <mxCell id="0OGq3kWGWBpuJd9hsDQ8-8" style="edgeStyle=none;rounded=0;orthogonalLoop=1;jettySize=auto;html=1;exitX=0.5;exitY=1;exitDx=0;exitDy=0;entryX=0.5;entryY=0;entryDx=0;entryDy=0;entryPerimeter=0;fillColor=#FFFFFF;" edge="1" parent="WIyWlLk6GJQsqaUBKTNV-1" source="0OGq3kWGWBpuJd9hsDQ8-7" target="0OGq3kWGWBpuJd9hsDQ8-3">
          <mxGeometry relative="1" as="geometry" />
        </mxCell>
        <mxCell id="0OGq3kWGWBpuJd9hsDQ8-9" style="edgeStyle=none;rounded=0;orthogonalLoop=1;jettySize=auto;html=1;exitX=0.5;exitY=1;exitDx=0;exitDy=0;entryX=0.5;entryY=0;entryDx=0;entryDy=0;fillColor=#FFFFFF;" edge="1" parent="WIyWlLk6GJQsqaUBKTNV-1" source="0OGq3kWGWBpuJd9hsDQ8-10" target="0OGq3kWGWBpuJd9hsDQ8-37">
          <mxGeometry relative="1" as="geometry">
            <mxPoint x="220" y="616" as="sourcePoint" />
            <mxPoint x="216" y="710" as="targetPoint" />
          </mxGeometry>
        </mxCell>
        <mxCell id="0OGq3kWGWBpuJd9hsDQ8-10" value="&lt;div style=&quot;background-color:#1e1f22;color:#bcbec4&quot;&gt;&lt;pre style=&quot;font-family:&#39;JetBrains Mono&#39;,monospace;font-size:9,8pt;&quot;&gt;&lt;pre style=&quot;font-family:&#39;JetBrains Mono&#39;,monospace;font-size:9,8pt;&quot;&gt;&lt;pre style=&quot;font-family:&#39;JetBrains Mono&#39;,monospace;font-size:9,8pt;&quot;&gt;&lt;pre style=&quot;font-family:&#39;JetBrains Mono&#39;,monospace;font-size:9,8pt;&quot;&gt;&lt;div&gt;&lt;pre style=&quot;font-family:&#39;JetBrains Mono&#39;,monospace;font-size:9,8pt;&quot;&gt;rightEnd--&lt;/pre&gt;&lt;/div&gt;&lt;/pre&gt;&lt;/pre&gt;&lt;/pre&gt;&lt;/pre&gt;&lt;/div&gt;" style="rounded=1;whiteSpace=wrap;html=1;fillColor=#FFFFFF;shadow=1;" vertex="1" parent="WIyWlLk6GJQsqaUBKTNV-1">
          <mxGeometry x="131" y="556" width="170" height="60" as="geometry" />
        </mxCell>
        <mxCell id="0OGq3kWGWBpuJd9hsDQ8-11" style="edgeStyle=orthogonalEdgeStyle;rounded=0;orthogonalLoop=1;jettySize=auto;html=1;exitX=0.5;exitY=0;exitDx=0;exitDy=0;entryX=1;entryY=0.5;entryDx=0;entryDy=0;fillColor=#FFFFFF;" edge="1" parent="WIyWlLk6GJQsqaUBKTNV-1" source="0OGq3kWGWBpuJd9hsDQ8-21" target="0OGq3kWGWBpuJd9hsDQ8-7">
          <mxGeometry relative="1" as="geometry">
            <mxPoint x="271" y="340" as="targetPoint" />
            <Array as="points">
              <mxPoint x="646" y="270" />
            </Array>
          </mxGeometry>
        </mxCell>
        <mxCell id="0OGq3kWGWBpuJd9hsDQ8-12" style="edgeStyle=orthogonalEdgeStyle;rounded=0;orthogonalLoop=1;jettySize=auto;html=1;exitX=0.5;exitY=1;exitDx=0;exitDy=0;exitPerimeter=0;entryX=0.5;entryY=0;entryDx=0;entryDy=0;fillColor=#FFFFFF;" edge="1" parent="WIyWlLk6GJQsqaUBKTNV-1" source="0OGq3kWGWBpuJd9hsDQ8-16" target="0OGq3kWGWBpuJd9hsDQ8-18">
          <mxGeometry relative="1" as="geometry" />
        </mxCell>
        <mxCell id="0OGq3kWGWBpuJd9hsDQ8-13" value="True" style="edgeLabel;html=1;align=center;verticalAlign=middle;resizable=0;points=[];fillColor=#FFFFFF;" vertex="1" connectable="0" parent="0OGq3kWGWBpuJd9hsDQ8-12">
          <mxGeometry x="-0.0467" relative="1" as="geometry">
            <mxPoint as="offset" />
          </mxGeometry>
        </mxCell>
        <mxCell id="0OGq3kWGWBpuJd9hsDQ8-14" style="edgeStyle=orthogonalEdgeStyle;rounded=0;orthogonalLoop=1;jettySize=auto;html=1;exitX=1;exitY=0.5;exitDx=0;exitDy=0;exitPerimeter=0;entryX=0;entryY=0.5;entryDx=0;entryDy=0;fillColor=#FFFFFF;" edge="1" parent="WIyWlLk6GJQsqaUBKTNV-1" source="0OGq3kWGWBpuJd9hsDQ8-16" target="0OGq3kWGWBpuJd9hsDQ8-21">
          <mxGeometry relative="1" as="geometry" />
        </mxCell>
        <mxCell id="0OGq3kWGWBpuJd9hsDQ8-15" value="False" style="edgeLabel;html=1;align=center;verticalAlign=middle;resizable=0;points=[];fillColor=#FFFFFF;" vertex="1" connectable="0" parent="0OGq3kWGWBpuJd9hsDQ8-14">
          <mxGeometry x="-0.05" y="-1" relative="1" as="geometry">
            <mxPoint as="offset" />
          </mxGeometry>
        </mxCell>
        <mxCell id="0OGq3kWGWBpuJd9hsDQ8-16" value="&lt;div style=&quot;background-color:#1e1f22;color:#bcbec4&quot;&gt;&lt;pre style=&quot;font-family:&#39;JetBrains Mono&#39;,monospace;font-size:9,8pt;&quot;&gt;&lt;pre style=&quot;border-color: var(--border-color); font-family: &amp;quot;JetBrains Mono&amp;quot;, monospace;&quot;&gt;&lt;font style=&quot;border-color: var(--border-color); font-size: 10px;&quot;&gt;arr[i] &amp;gt; arr[i + 1]&lt;/font&gt;&lt;/pre&gt;&lt;/pre&gt;&lt;/div&gt;" style="strokeWidth=2;html=1;shape=mxgraph.flowchart.decision;whiteSpace=wrap;fillColor=#FFFFFF;shadow=1;" vertex="1" parent="WIyWlLk6GJQsqaUBKTNV-1">
          <mxGeometry x="338" y="511" width="160" height="150" as="geometry" />
        </mxCell>
        <mxCell id="0OGq3kWGWBpuJd9hsDQ8-17" style="edgeStyle=orthogonalEdgeStyle;rounded=0;orthogonalLoop=1;jettySize=auto;html=1;exitX=1;exitY=0.5;exitDx=0;exitDy=0;entryX=0.5;entryY=1;entryDx=0;entryDy=0;fillColor=#FFFFFF;" edge="1" parent="WIyWlLk6GJQsqaUBKTNV-1" source="0OGq3kWGWBpuJd9hsDQ8-18" target="0OGq3kWGWBpuJd9hsDQ8-21">
          <mxGeometry relative="1" as="geometry" />
        </mxCell>
        <mxCell id="0OGq3kWGWBpuJd9hsDQ8-18" value="&lt;div style=&quot;background-color:#1e1f22;color:#bcbec4&quot;&gt;&lt;pre style=&quot;font-family:&#39;JetBrains Mono&#39;,monospace;font-size:9,8pt;&quot;&gt;&lt;pre style=&quot;font-family:&#39;JetBrains Mono&#39;,monospace;font-size:9,8pt;&quot;&gt;&lt;pre style=&quot;font-family:&#39;JetBrains Mono&#39;,monospace;font-size:9,8pt;&quot;&gt;int temp = arr[i];&lt;br&gt;arr[i] = arr[i + &lt;span style=&quot;color:#2aacb8;&quot;&gt;1&lt;/span&gt;];&lt;br&gt;arr[i + &lt;span style=&quot;color:#2aacb8;&quot;&gt;1&lt;/span&gt;] = temp; &lt;/pre&gt;&lt;/pre&gt;&lt;/pre&gt;&lt;/div&gt;" style="rounded=1;whiteSpace=wrap;html=1;fillColor=#FFFFFF;shadow=1;" vertex="1" parent="WIyWlLk6GJQsqaUBKTNV-1">
          <mxGeometry x="333" y="711" width="170" height="60" as="geometry" />
        </mxCell>
        <mxCell id="0OGq3kWGWBpuJd9hsDQ8-19" style="edgeStyle=orthogonalEdgeStyle;rounded=0;orthogonalLoop=1;jettySize=auto;html=1;exitX=1;exitY=0.5;exitDx=0;exitDy=0;exitPerimeter=0;entryX=0.5;entryY=0;entryDx=0;entryDy=0;entryPerimeter=0;fillColor=#FFFFFF;" edge="1" parent="WIyWlLk6GJQsqaUBKTNV-1" source="0OGq3kWGWBpuJd9hsDQ8-3" target="0OGq3kWGWBpuJd9hsDQ8-16">
          <mxGeometry relative="1" as="geometry" />
        </mxCell>
        <mxCell id="0OGq3kWGWBpuJd9hsDQ8-20" value="True" style="edgeLabel;html=1;align=center;verticalAlign=middle;resizable=0;points=[];strokeColor=#33FF33;fillColor=#FFFFFF;" vertex="1" connectable="0" parent="0OGq3kWGWBpuJd9hsDQ8-19">
          <mxGeometry x="-0.4118" y="-1" relative="1" as="geometry">
            <mxPoint as="offset" />
          </mxGeometry>
        </mxCell>
        <mxCell id="0OGq3kWGWBpuJd9hsDQ8-21" value="&lt;div style=&quot;background-color:#1e1f22;color:#bcbec4&quot;&gt;&lt;pre style=&quot;font-family:&#39;JetBrains Mono&#39;,monospace;font-size:9,8pt;&quot;&gt;&lt;pre style=&quot;font-family:&#39;JetBrains Mono&#39;,monospace;font-size:9,8pt;&quot;&gt;&lt;pre style=&quot;font-family:&#39;JetBrains Mono&#39;,monospace;font-size:9,8pt;&quot;&gt;&lt;pre style=&quot;border-color: var(--border-color); font-family: &amp;quot;JetBrains Mono&amp;quot;, monospace;&quot;&gt;i++&lt;/pre&gt;&lt;/pre&gt;&lt;/pre&gt;&lt;/pre&gt;&lt;/div&gt;" style="rounded=1;whiteSpace=wrap;html=1;fillColor=#FFFFFF;shadow=1;" vertex="1" parent="WIyWlLk6GJQsqaUBKTNV-1">
          <mxGeometry x="561" y="556" width="170" height="60" as="geometry" />
        </mxCell>
        <mxCell id="0OGq3kWGWBpuJd9hsDQ8-22" style="edgeStyle=none;rounded=0;orthogonalLoop=1;jettySize=auto;html=1;exitX=0.5;exitY=1;exitDx=0;exitDy=0;exitPerimeter=0;entryX=0.5;entryY=0;entryDx=0;entryDy=0;fillColor=#FFFFFF;" edge="1" parent="WIyWlLk6GJQsqaUBKTNV-1" source="0OGq3kWGWBpuJd9hsDQ8-24" target="0OGq3kWGWBpuJd9hsDQ8-25">
          <mxGeometry relative="1" as="geometry" />
        </mxCell>
        <mxCell id="0OGq3kWGWBpuJd9hsDQ8-23" value="False" style="edgeLabel;html=1;align=center;verticalAlign=middle;resizable=0;points=[];fillColor=#FFFFFF;" vertex="1" connectable="0" parent="0OGq3kWGWBpuJd9hsDQ8-22">
          <mxGeometry x="0.0973" y="-2" relative="1" as="geometry">
            <mxPoint as="offset" />
          </mxGeometry>
        </mxCell>
        <mxCell id="0OGq3kWGWBpuJd9hsDQ8-24" value="&lt;div style=&quot;background-color:#1e1f22;color:#bcbec4&quot;&gt;&lt;pre style=&quot;font-family:&#39;JetBrains Mono&#39;,monospace;font-size:9,8pt;&quot;&gt;&lt;div&gt;&lt;pre style=&quot;font-family:&#39;JetBrains Mono&#39;,monospace;font-size:9,8pt;&quot;&gt;i &amp;gt; leftEnd;&lt;/pre&gt;&lt;/div&gt;&lt;/pre&gt;&lt;/div&gt;" style="strokeWidth=2;html=1;shape=mxgraph.flowchart.decision;whiteSpace=wrap;fillColor=#FFFFFF;shadow=1;" vertex="1" parent="WIyWlLk6GJQsqaUBKTNV-1">
          <mxGeometry x="135" y="898" width="160" height="150" as="geometry" />
        </mxCell>
        <mxCell id="0OGq3kWGWBpuJd9hsDQ8-25" value="&lt;div style=&quot;background-color:#1e1f22;color:#bcbec4&quot;&gt;&lt;pre style=&quot;font-family:&#39;JetBrains Mono&#39;,monospace;font-size:9,8pt;&quot;&gt;&lt;pre style=&quot;font-family:&#39;JetBrains Mono&#39;,monospace;font-size:9,8pt;&quot;&gt;&lt;pre style=&quot;font-family:&#39;JetBrains Mono&#39;,monospace;font-size:9,8pt;&quot;&gt;&lt;pre style=&quot;font-family:&#39;JetBrains Mono&#39;,monospace;font-size:9,8pt;&quot;&gt;&lt;pre style=&quot;font-family:&#39;JetBrains Mono&#39;,monospace;font-size:9,8pt;&quot;&gt;&lt;div&gt;&lt;pre style=&quot;font-family:&#39;JetBrains Mono&#39;,monospace;font-size:9,8pt;&quot;&gt;leftEnd++;&lt;/pre&gt;&lt;/div&gt;&lt;/pre&gt;&lt;/pre&gt;&lt;/pre&gt;&lt;/pre&gt;&lt;/pre&gt;&lt;/div&gt;" style="rounded=1;whiteSpace=wrap;html=1;fillColor=#FFFFFF;shadow=1;" vertex="1" parent="WIyWlLk6GJQsqaUBKTNV-1">
          <mxGeometry x="130" y="1104" width="170" height="60" as="geometry" />
        </mxCell>
        <mxCell id="0OGq3kWGWBpuJd9hsDQ8-26" style="edgeStyle=orthogonalEdgeStyle;rounded=0;orthogonalLoop=1;jettySize=auto;html=1;exitX=0.5;exitY=0;exitDx=0;exitDy=0;entryX=1.001;entryY=0.576;entryDx=0;entryDy=0;entryPerimeter=0;fillColor=#FFFFFF;" edge="1" parent="WIyWlLk6GJQsqaUBKTNV-1" source="0OGq3kWGWBpuJd9hsDQ8-36" target="0OGq3kWGWBpuJd9hsDQ8-37">
          <mxGeometry relative="1" as="geometry">
            <mxPoint x="361" y="830" as="targetPoint" />
            <Array as="points">
              <mxPoint x="646" y="820" />
              <mxPoint x="300" y="820" />
            </Array>
          </mxGeometry>
        </mxCell>
        <mxCell id="0OGq3kWGWBpuJd9hsDQ8-27" style="edgeStyle=orthogonalEdgeStyle;rounded=0;orthogonalLoop=1;jettySize=auto;html=1;exitX=0.5;exitY=1;exitDx=0;exitDy=0;exitPerimeter=0;entryX=0.5;entryY=0;entryDx=0;entryDy=0;fillColor=#FFFFFF;" edge="1" parent="WIyWlLk6GJQsqaUBKTNV-1" source="0OGq3kWGWBpuJd9hsDQ8-31" target="0OGq3kWGWBpuJd9hsDQ8-33">
          <mxGeometry relative="1" as="geometry" />
        </mxCell>
        <mxCell id="0OGq3kWGWBpuJd9hsDQ8-28" value="True" style="edgeLabel;html=1;align=center;verticalAlign=middle;resizable=0;points=[];fillColor=#FFFFFF;" vertex="1" connectable="0" parent="0OGq3kWGWBpuJd9hsDQ8-27">
          <mxGeometry x="-0.0467" relative="1" as="geometry">
            <mxPoint as="offset" />
          </mxGeometry>
        </mxCell>
        <mxCell id="0OGq3kWGWBpuJd9hsDQ8-29" style="edgeStyle=orthogonalEdgeStyle;rounded=0;orthogonalLoop=1;jettySize=auto;html=1;exitX=1;exitY=0.5;exitDx=0;exitDy=0;exitPerimeter=0;entryX=0;entryY=0.5;entryDx=0;entryDy=0;fillColor=#FFFFFF;" edge="1" parent="WIyWlLk6GJQsqaUBKTNV-1" source="0OGq3kWGWBpuJd9hsDQ8-31" target="0OGq3kWGWBpuJd9hsDQ8-36">
          <mxGeometry relative="1" as="geometry" />
        </mxCell>
        <mxCell id="0OGq3kWGWBpuJd9hsDQ8-30" value="False" style="edgeLabel;html=1;align=center;verticalAlign=middle;resizable=0;points=[];fillColor=#FFFFFF;" vertex="1" connectable="0" parent="0OGq3kWGWBpuJd9hsDQ8-29">
          <mxGeometry x="-0.05" y="-1" relative="1" as="geometry">
            <mxPoint as="offset" />
          </mxGeometry>
        </mxCell>
        <mxCell id="0OGq3kWGWBpuJd9hsDQ8-31" value="&lt;div style=&quot;background-color:#1e1f22;color:#bcbec4&quot;&gt;&lt;pre style=&quot;font-family:&#39;JetBrains Mono&#39;,monospace;font-size:9,8pt;&quot;&gt;&lt;pre style=&quot;border-color: var(--border-color); font-family: &amp;quot;JetBrains Mono&amp;quot;, monospace;&quot;&gt;&lt;div&gt;&lt;pre style=&quot;font-family:&#39;JetBrains Mono&#39;,monospace;font-size:9,8pt;&quot;&gt;arr[i] &amp;lt; arr[i - 1]&lt;/pre&gt;&lt;/div&gt;&lt;/pre&gt;&lt;/pre&gt;&lt;/div&gt;" style="strokeWidth=2;html=1;shape=mxgraph.flowchart.decision;whiteSpace=wrap;fillColor=#FFFFFF;shadow=1;" vertex="1" parent="WIyWlLk6GJQsqaUBKTNV-1">
          <mxGeometry x="337" y="1059" width="160" height="150" as="geometry" />
        </mxCell>
        <mxCell id="0OGq3kWGWBpuJd9hsDQ8-32" style="edgeStyle=orthogonalEdgeStyle;rounded=0;orthogonalLoop=1;jettySize=auto;html=1;exitX=1;exitY=0.5;exitDx=0;exitDy=0;entryX=0.5;entryY=1;entryDx=0;entryDy=0;fillColor=#FFFFFF;" edge="1" parent="WIyWlLk6GJQsqaUBKTNV-1" source="0OGq3kWGWBpuJd9hsDQ8-33" target="0OGq3kWGWBpuJd9hsDQ8-36">
          <mxGeometry relative="1" as="geometry" />
        </mxCell>
        <mxCell id="0OGq3kWGWBpuJd9hsDQ8-33" value="&lt;div style=&quot;background-color:#1e1f22;color:#bcbec4&quot;&gt;&lt;pre style=&quot;font-family:&#39;JetBrains Mono&#39;,monospace;font-size:9,8pt;&quot;&gt;&lt;pre style=&quot;font-family:&#39;JetBrains Mono&#39;,monospace;font-size:9,8pt;&quot;&gt;&lt;pre style=&quot;font-family:&#39;JetBrains Mono&#39;,monospace;font-size:9,8pt;&quot;&gt;&lt;div&gt;&lt;pre style=&quot;font-family:&#39;JetBrains Mono&#39;,monospace;font-size:9,8pt;&quot;&gt;int temp = arr[i];&lt;br&gt;arr[i] = arr[i - &lt;span style=&quot;color:#2aacb8;&quot;&gt;1&lt;/span&gt;];&lt;br&gt;arr[i - &lt;span style=&quot;color:#2aacb8;&quot;&gt;1&lt;/span&gt;] = temp;&lt;/pre&gt;&lt;/div&gt;&lt;/pre&gt;&lt;/pre&gt;&lt;/pre&gt;&lt;/div&gt;" style="rounded=1;whiteSpace=wrap;html=1;fillColor=#FFFFFF;shadow=1;" vertex="1" parent="WIyWlLk6GJQsqaUBKTNV-1">
          <mxGeometry x="332" y="1259" width="170" height="60" as="geometry" />
        </mxCell>
        <mxCell id="0OGq3kWGWBpuJd9hsDQ8-34" style="edgeStyle=orthogonalEdgeStyle;rounded=0;orthogonalLoop=1;jettySize=auto;html=1;exitX=1;exitY=0.5;exitDx=0;exitDy=0;exitPerimeter=0;entryX=0.5;entryY=0;entryDx=0;entryDy=0;entryPerimeter=0;fillColor=#FFFFFF;" edge="1" parent="WIyWlLk6GJQsqaUBKTNV-1" source="0OGq3kWGWBpuJd9hsDQ8-24" target="0OGq3kWGWBpuJd9hsDQ8-31">
          <mxGeometry relative="1" as="geometry" />
        </mxCell>
        <mxCell id="0OGq3kWGWBpuJd9hsDQ8-35" value="True" style="edgeLabel;html=1;align=center;verticalAlign=middle;resizable=0;points=[];strokeColor=#33FF33;fillColor=#FFFFFF;" vertex="1" connectable="0" parent="0OGq3kWGWBpuJd9hsDQ8-34">
          <mxGeometry x="-0.4118" y="-1" relative="1" as="geometry">
            <mxPoint as="offset" />
          </mxGeometry>
        </mxCell>
        <mxCell id="0OGq3kWGWBpuJd9hsDQ8-36" value="&lt;div style=&quot;background-color:#1e1f22;color:#bcbec4&quot;&gt;&lt;pre style=&quot;font-family:&#39;JetBrains Mono&#39;,monospace;font-size:9,8pt;&quot;&gt;&lt;pre style=&quot;font-family:&#39;JetBrains Mono&#39;,monospace;font-size:9,8pt;&quot;&gt;&lt;pre style=&quot;font-family:&#39;JetBrains Mono&#39;,monospace;font-size:9,8pt;&quot;&gt;&lt;pre style=&quot;border-color: var(--border-color); font-family: &amp;quot;JetBrains Mono&amp;quot;, monospace;&quot;&gt;&lt;div&gt;&lt;pre style=&quot;font-family:&#39;JetBrains Mono&#39;,monospace;font-size:9,8pt;&quot;&gt;i--&lt;/pre&gt;&lt;/div&gt;&lt;/pre&gt;&lt;/pre&gt;&lt;/pre&gt;&lt;/pre&gt;&lt;/div&gt;" style="rounded=1;whiteSpace=wrap;html=1;fillColor=#FFFFFF;shadow=1;" vertex="1" parent="WIyWlLk6GJQsqaUBKTNV-1">
          <mxGeometry x="560" y="1104" width="170" height="60" as="geometry" />
        </mxCell>
        <mxCell id="0OGq3kWGWBpuJd9hsDQ8-37" value="&lt;div style=&quot;background-color:#1e1f22;color:#bcbec4&quot;&gt;&lt;pre style=&quot;font-family:&#39;JetBrains Mono&#39;,monospace;font-size:9,8pt;&quot;&gt;&lt;pre style=&quot;font-family:&#39;JetBrains Mono&#39;,monospace;font-size:9,8pt;&quot;&gt;&lt;div&gt;&lt;pre style=&quot;font-family:&#39;JetBrains Mono&#39;,monospace;font-size:9,8pt;&quot;&gt;int i = rightEnd;&lt;/pre&gt;&lt;/div&gt;&lt;/pre&gt;&lt;/pre&gt;&lt;/div&gt;" style="rounded=1;whiteSpace=wrap;html=1;fillColor=#FFFFFF;shadow=1;" vertex="1" parent="WIyWlLk6GJQsqaUBKTNV-1">
          <mxGeometry x="130" y="786" width="170" height="60" as="geometry" />
        </mxCell>
        <mxCell id="0OGq3kWGWBpuJd9hsDQ8-38" style="edgeStyle=none;rounded=0;orthogonalLoop=1;jettySize=auto;html=1;entryX=0.5;entryY=0;entryDx=0;entryDy=0;entryPerimeter=0;exitX=0.5;exitY=1;exitDx=0;exitDy=0;fillColor=#FFFFFF;" edge="1" parent="WIyWlLk6GJQsqaUBKTNV-1" source="0OGq3kWGWBpuJd9hsDQ8-37" target="0OGq3kWGWBpuJd9hsDQ8-24">
          <mxGeometry relative="1" as="geometry">
            <mxPoint x="216" y="850" as="sourcePoint" />
          </mxGeometry>
        </mxCell>
        <mxCell id="0OGq3kWGWBpuJd9hsDQ8-39" style="edgeStyle=orthogonalEdgeStyle;rounded=0;orthogonalLoop=1;jettySize=auto;html=1;exitX=0;exitY=0.5;exitDx=0;exitDy=0;exitPerimeter=0;entryX=0;entryY=0.5;entryDx=0;entryDy=0;fillColor=#FFFFFF;" edge="1" parent="WIyWlLk6GJQsqaUBKTNV-1" source="0OGq3kWGWBpuJd9hsDQ8-41" target="0OGq3kWGWBpuJd9hsDQ8-7">
          <mxGeometry relative="1" as="geometry">
            <Array as="points">
              <mxPoint x="41" y="1284" />
              <mxPoint x="41" y="270" />
            </Array>
          </mxGeometry>
        </mxCell>
        <mxCell id="0OGq3kWGWBpuJd9hsDQ8-40" value="True" style="edgeLabel;html=1;align=center;verticalAlign=middle;resizable=0;points=[];fillColor=#FFFFFF;" vertex="1" connectable="0" parent="0OGq3kWGWBpuJd9hsDQ8-39">
          <mxGeometry x="-0.9229" y="1" relative="1" as="geometry">
            <mxPoint as="offset" />
          </mxGeometry>
        </mxCell>
        <mxCell id="0OGq3kWGWBpuJd9hsDQ8-41" value="&lt;div style=&quot;background-color:#1e1f22;color:#bcbec4&quot;&gt;&lt;pre style=&quot;font-family:&#39;JetBrains Mono&#39;,monospace;font-size:9,8pt;&quot;&gt;&lt;pre style=&quot;border-color: var(--border-color); font-family: &amp;quot;JetBrains Mono&amp;quot;, monospace;&quot;&gt;&lt;pre style=&quot;font-family:&#39;JetBrains Mono&#39;,monospace;font-size:9,8pt;&quot;&gt;&lt;div&gt;&lt;pre style=&quot;font-family:&#39;JetBrains Mono&#39;,monospace;font-size:9,8pt;&quot;&gt;leftEnd &amp;lt; rightEnd&lt;/pre&gt;&lt;/div&gt;&lt;/pre&gt;&lt;/pre&gt;&lt;/pre&gt;&lt;/div&gt;" style="strokeWidth=2;html=1;shape=mxgraph.flowchart.decision;whiteSpace=wrap;fillColor=#FFFFFF;shadow=1;" vertex="1" parent="WIyWlLk6GJQsqaUBKTNV-1">
          <mxGeometry x="135" y="1209" width="160" height="150" as="geometry" />
        </mxCell>
        <mxCell id="0OGq3kWGWBpuJd9hsDQ8-42" style="edgeStyle=none;rounded=0;orthogonalLoop=1;jettySize=auto;html=1;exitX=0.5;exitY=1;exitDx=0;exitDy=0;entryX=0.5;entryY=0;entryDx=0;entryDy=0;entryPerimeter=0;fillColor=#FFFFFF;" edge="1" parent="WIyWlLk6GJQsqaUBKTNV-1" source="0OGq3kWGWBpuJd9hsDQ8-25" target="0OGq3kWGWBpuJd9hsDQ8-41">
          <mxGeometry relative="1" as="geometry">
            <mxPoint x="215" y="1164" as="sourcePoint" />
            <mxPoint x="216" y="1214" as="targetPoint" />
          </mxGeometry>
        </mxCell>
        <mxCell id="0OGq3kWGWBpuJd9hsDQ8-43" value="&lt;font style=&quot;font-size: 10px;&quot;&gt;Finish&lt;/font&gt;" style="strokeWidth=2;html=1;shape=mxgraph.flowchart.start_1;whiteSpace=wrap;fillColor=#FFFFFF;shadow=1;" vertex="1" parent="WIyWlLk6GJQsqaUBKTNV-1">
          <mxGeometry x="165" y="1420" width="100" height="60" as="geometry" />
        </mxCell>
        <mxCell id="0OGq3kWGWBpuJd9hsDQ8-44" style="edgeStyle=orthogonalEdgeStyle;rounded=0;orthogonalLoop=1;jettySize=auto;html=1;exitX=0.5;exitY=1;exitDx=0;exitDy=0;exitPerimeter=0;entryX=0.5;entryY=0;entryDx=0;entryDy=0;entryPerimeter=0;fillColor=#FFFFFF;" edge="1" parent="WIyWlLk6GJQsqaUBKTNV-1" source="0OGq3kWGWBpuJd9hsDQ8-41" target="0OGq3kWGWBpuJd9hsDQ8-43">
          <mxGeometry relative="1" as="geometry" />
        </mxCell>
        <mxCell id="0OGq3kWGWBpuJd9hsDQ8-45" value="False" style="edgeLabel;html=1;align=center;verticalAlign=middle;resizable=0;points=[];fillColor=#FFFFFF;" vertex="1" connectable="0" parent="0OGq3kWGWBpuJd9hsDQ8-44">
          <mxGeometry x="-0.013" y="-1" relative="1" as="geometry">
            <mxPoint as="offset" />
          </mxGeometry>
        </mxCell>
      </root>
    </mxGraphModel>
  </diagram>
</mxfile>
